<svg width="64" height="64" viewBox="0 0 64 64" fill="none" xmlns="http://www.w3.org/2000/svg">
<mask id="path-1-outside-1_466_6378" maskUnits="userSpaceOnUse" x="0" y="0.900604" width="64" height="63" fill="black">
<rect fill="white" y="0.900604" width="64" height="63"/>
<path fill-rule="evenodd" clip-rule="evenodd" d="M35.2266 5.08485C33.7429 2.17252 29.582 2.17253 28.0983 5.08486L21.9615 17.1308C21.3692 18.2934 20.2471 19.0941 18.955 19.276L5.44686 21.1775C2.69084 21.5654 1.32245 24.4561 2.33118 26.7439C1.71237 28.1886 1.9276 29.9805 3.25816 31.2369L12.8683 40.3118C13.3189 40.7373 13.657 41.2539 13.8679 41.8169L11.7701 53.6657C11.6355 54.4258 11.7176 55.1454 11.9601 55.7827L11.7701 56.8559C11.1946 60.1067 14.5824 62.6159 17.5242 61.1176L29.8471 54.8415C30.9877 54.2607 32.3373 54.2607 33.4778 54.8415L45.8008 61.1176C48.7425 62.6159 52.1304 60.1067 51.5548 56.8559L51.3648 55.7827C51.6073 55.1454 51.6894 54.4258 51.5548 53.6657L49.4571 41.8169C49.6679 41.2539 50.0061 40.7373 50.4566 40.3118L60.0668 31.237C61.3973 29.9805 61.6126 28.1886 60.9938 26.7439C62.0025 24.4561 60.6341 21.5654 57.8781 21.1775L44.37 19.276C43.0779 19.0941 41.9557 18.2934 41.3634 17.1308L35.2266 5.08485Z"/>
</mask>
<path fill-rule="evenodd" clip-rule="evenodd" d="M35.2266 5.08485C33.7429 2.17252 29.582 2.17253 28.0983 5.08486L21.9615 17.1308C21.3692 18.2934 20.2471 19.0941 18.955 19.276L5.44686 21.1775C2.69084 21.5654 1.32245 24.4561 2.33118 26.7439C1.71237 28.1886 1.9276 29.9805 3.25816 31.2369L12.8683 40.3118C13.3189 40.7373 13.657 41.2539 13.8679 41.8169L11.7701 53.6657C11.6355 54.4258 11.7176 55.1454 11.9601 55.7827L11.7701 56.8559C11.1946 60.1067 14.5824 62.6159 17.5242 61.1176L29.8471 54.8415C30.9877 54.2607 32.3373 54.2607 33.4778 54.8415L45.8008 61.1176C48.7425 62.6159 52.1304 60.1067 51.5548 56.8559L51.3648 55.7827C51.6073 55.1454 51.6894 54.4258 51.5548 53.6657L49.4571 41.8169C49.6679 41.2539 50.0061 40.7373 50.4566 40.3118L60.0668 31.237C61.3973 29.9805 61.6126 28.1886 60.9938 26.7439C62.0025 24.4561 60.6341 21.5654 57.8781 21.1775L44.37 19.276C43.0779 19.0941 41.9557 18.2934 41.3634 17.1308L35.2266 5.08485Z" fill="#7A54FD"/>
<path d="M28.0983 5.08486L26.3163 4.17698V4.17698L28.0983 5.08486ZM35.2266 5.08485L33.4445 5.99272L35.2266 5.08485ZM21.9615 17.1308L23.7436 18.0386V18.0386L21.9615 17.1308ZM18.955 19.276L18.6762 17.2955H18.6762L18.955 19.276ZM5.44686 21.1775L5.72564 23.1579H5.72564L5.44686 21.1775ZM2.33118 26.7439L4.16962 27.5314L4.51188 26.7324L4.1612 25.9371L2.33118 26.7439ZM3.25816 31.2369L1.88502 32.6911H1.88502L3.25816 31.2369ZM12.8683 40.3118L14.2415 38.8577L12.8683 40.3118ZM13.8679 41.8169L15.8373 42.1656L15.9326 41.6273L15.7408 41.1154L13.8679 41.8169ZM11.7701 53.6657L9.80072 53.317L11.7701 53.6657ZM11.9601 55.7827L13.9295 56.1314L14.0258 55.5876L13.8294 55.0715L11.9601 55.7827ZM11.7701 56.8559L13.7395 57.2046L11.7701 56.8559ZM17.5242 61.1176L16.6165 59.3355H16.6165L17.5242 61.1176ZM29.8471 54.8415L30.7548 56.6237H30.7548L29.8471 54.8415ZM33.4778 54.8415L32.5701 56.6237L33.4778 54.8415ZM45.8008 61.1176L46.7084 59.3355H46.7084L45.8008 61.1176ZM51.5548 56.8559L53.5242 56.5073V56.5073L51.5548 56.8559ZM51.3648 55.7827L49.4955 55.0715L49.2992 55.5876L49.3955 56.1314L51.3648 55.7827ZM51.5548 53.6657L49.5855 54.0143V54.0143L51.5548 53.6657ZM49.4571 41.8169L47.5841 41.1154L47.3924 41.6273L47.4877 42.1656L49.4571 41.8169ZM50.4566 40.3118L49.0835 38.8577H49.0835L50.4566 40.3118ZM60.0668 31.237L61.4399 32.6911L60.0668 31.237ZM60.9938 26.7439L59.1637 25.9371L58.8131 26.7324L59.1553 27.5314L60.9938 26.7439ZM57.8781 21.1775L57.5993 23.1579L57.8781 21.1775ZM44.37 19.276L44.6488 17.2955L44.37 19.276ZM41.3634 17.1308L39.5813 18.0386V18.0386L41.3634 17.1308ZM29.8804 5.99273C30.6222 4.53656 32.7027 4.53657 33.4445 5.99272L37.0087 4.17697C34.7831 -0.191532 28.5418 -0.191508 26.3163 4.17698L29.8804 5.99273ZM23.7436 18.0386L29.8804 5.99273L26.3163 4.17698L20.1795 16.2229L23.7436 18.0386ZM19.2338 21.2564C21.1719 20.9836 22.8551 19.7826 23.7436 18.0386L20.1795 16.2229C19.8833 16.8042 19.3222 17.2045 18.6762 17.2955L19.2338 21.2564ZM5.72564 23.1579L19.2338 21.2564L18.6762 17.2955L5.16807 19.197L5.72564 23.1579ZM4.1612 25.9371C3.65106 24.7801 4.37126 23.3486 5.72564 23.1579L5.16807 19.197C1.01041 19.7822 -1.00617 24.1321 0.501168 27.5508L4.1612 25.9371ZM4.63129 29.7828C3.96826 29.1567 3.84857 28.2809 4.16962 27.5314L0.492748 25.9564C-0.423826 28.0962 -0.113065 30.8043 1.88502 32.6911L4.63129 29.7828ZM14.2415 38.8577L4.63129 29.7828L1.88502 32.6911L11.4952 41.7659L14.2415 38.8577ZM15.7408 41.1154C15.4245 40.271 14.9172 39.4958 14.2415 38.8577L11.4952 41.7659C11.7206 41.9788 11.8895 42.2368 11.995 42.5184L15.7408 41.1154ZM13.7395 54.0143L15.8373 42.1656L11.8985 41.4682L9.80072 53.317L13.7395 54.0143ZM13.8294 55.0715C13.714 54.7681 13.6686 54.4146 13.7395 54.0143L9.80072 53.317C9.60243 54.437 9.72133 55.5227 10.0908 56.4939L13.8294 55.0715ZM13.7395 57.2046L13.9295 56.1314L9.99074 55.434L9.80072 56.5073L13.7395 57.2046ZM16.6165 59.3355C15.1456 60.0846 13.4517 58.83 13.7395 57.2046L9.80072 56.5073C8.93742 61.3834 14.0192 65.1472 18.4318 62.8998L16.6165 59.3355ZM28.9395 53.0594L16.6165 59.3355L18.4318 62.8998L30.7548 56.6237L28.9395 53.0594ZM34.3855 53.0594C32.6747 52.1881 30.6503 52.1881 28.9395 53.0594L30.7548 56.6237C31.3251 56.3333 31.9999 56.3333 32.5701 56.6237L34.3855 53.0594ZM46.7084 59.3355L34.3855 53.0594L32.5701 56.6237L44.8931 62.8998L46.7084 59.3355ZM49.5855 57.2046C49.8732 58.83 48.1793 60.0846 46.7084 59.3355L44.8931 62.8998C49.3058 65.1472 54.3875 61.3834 53.5242 56.5073L49.5855 57.2046ZM49.3955 56.1314L49.5855 57.2046L53.5242 56.5073L53.3342 55.434L49.3955 56.1314ZM49.5855 54.0143C49.6563 54.4146 49.611 54.7681 49.4955 55.0715L53.2341 56.4939C53.6036 55.5227 53.7225 54.437 53.5242 53.317L49.5855 54.0143ZM47.4877 42.1656L49.5855 54.0143L53.5242 53.317L51.4264 41.4682L47.4877 42.1656ZM49.0835 38.8577C48.4077 39.4958 47.9004 40.271 47.5841 41.1154L51.33 42.5184C51.4355 42.2368 51.6044 41.9788 51.8297 41.7659L49.0835 38.8577ZM58.6937 29.7828L49.0835 38.8577L51.8297 41.7659L61.4399 32.6911L58.6937 29.7828ZM59.1553 27.5314C59.4764 28.2809 59.3567 29.1567 58.6937 29.7828L61.4399 32.6911C63.438 30.8043 63.7488 28.0962 62.8322 25.9564L59.1553 27.5314ZM57.5993 23.1579C58.9537 23.3486 59.6739 24.7801 59.1637 25.9371L62.8238 27.5508C64.3311 24.1321 62.3145 19.7822 58.1569 19.197L57.5993 23.1579ZM44.0912 21.2564L57.5993 23.1579L58.1569 19.197L44.6488 17.2955L44.0912 21.2564ZM39.5813 18.0386C40.4698 19.7826 42.153 20.9836 44.0912 21.2564L44.6488 17.2955C44.0027 17.2045 43.4416 16.8042 43.1455 16.2229L39.5813 18.0386ZM33.4445 5.99272L39.5813 18.0386L43.1455 16.2229L37.0087 4.17697L33.4445 5.99272Z" fill="white" mask="url(#path-1-outside-1_466_6378)"/>
</svg>
