<svg width="78" height="76" viewBox="0 0 78 76" fill="none" xmlns="http://www.w3.org/2000/svg">
<mask id="path-1-outside-1_466_6374" maskUnits="userSpaceOnUse" x="0.887695" y="0" width="78" height="76" fill="black">
<rect fill="white" x="0.887695" width="78" height="76"/>
<path fill-rule="evenodd" clip-rule="evenodd" d="M43.0045 4.18425C41.5208 1.27192 37.3599 1.27191 35.8763 4.18425L27.6103 20.4096C27.0179 21.5722 25.8958 22.3729 24.6037 22.5548L6.33455 25.1264C3.45073 25.5324 2.08622 28.6785 3.37464 31.007C2.57375 32.4992 2.71396 34.4715 4.14585 35.8236L17.2011 48.1517C17.5994 48.5278 17.9098 48.9751 18.1221 49.4627L15.2896 65.4614C15.1413 66.2989 15.2561 67.0872 15.5586 67.7704L15.2896 69.2894C14.7141 72.5402 18.1019 75.0493 21.0437 73.5511L37.6251 65.1062C38.7656 64.5253 40.1152 64.5253 41.2557 65.1062L57.8371 73.5511C60.7788 75.0493 64.1667 72.5402 63.5911 69.2894L63.3222 67.7704C63.6246 67.0872 63.7394 66.2989 63.5911 65.4614L60.7586 49.4627C60.971 48.9751 61.2814 48.5278 61.6796 48.1517L74.7349 35.8236C76.1668 34.4715 76.307 32.4992 75.5061 31.007C76.7945 28.6785 75.43 25.5324 72.5462 25.1264L54.2771 22.5548C52.985 22.3729 51.8628 21.5722 51.2705 20.4096L43.0045 4.18425Z"/>
</mask>
<path fill-rule="evenodd" clip-rule="evenodd" d="M43.0045 4.18425C41.5208 1.27192 37.3599 1.27191 35.8763 4.18425L27.6103 20.4096C27.0179 21.5722 25.8958 22.3729 24.6037 22.5548L6.33455 25.1264C3.45073 25.5324 2.08622 28.6785 3.37464 31.007C2.57375 32.4992 2.71396 34.4715 4.14585 35.8236L17.2011 48.1517C17.5994 48.5278 17.9098 48.9751 18.1221 49.4627L15.2896 65.4614C15.1413 66.2989 15.2561 67.0872 15.5586 67.7704L15.2896 69.2894C14.7141 72.5402 18.1019 75.0493 21.0437 73.5511L37.6251 65.1062C38.7656 64.5253 40.1152 64.5253 41.2557 65.1062L57.8371 73.5511C60.7788 75.0493 64.1667 72.5402 63.5911 69.2894L63.3222 67.7704C63.6246 67.0872 63.7394 66.2989 63.5911 65.4614L60.7586 49.4627C60.971 48.9751 61.2814 48.5278 61.6796 48.1517L74.7349 35.8236C76.1668 34.4715 76.307 32.4992 75.5061 31.007C76.7945 28.6785 75.43 25.5324 72.5462 25.1264L54.2771 22.5548C52.985 22.3729 51.8628 21.5722 51.2705 20.4096L43.0045 4.18425Z" fill="#7A54FD"/>
<path d="M35.8763 4.18425L37.6583 5.09212V5.09212L35.8763 4.18425ZM43.0045 4.18425L41.2224 5.09213V5.09213L43.0045 4.18425ZM27.6103 20.4096L25.8282 19.5017L27.6103 20.4096ZM24.6037 22.5548L24.8825 24.5352H24.8825L24.6037 22.5548ZM6.33455 25.1264L6.61334 27.1069H6.61334L6.33455 25.1264ZM3.37464 31.007L5.13687 31.9528L5.65234 30.9924L5.1246 30.0387L3.37464 31.007ZM4.14585 35.8236L5.51899 34.3695H5.51899L4.14585 35.8236ZM17.2011 48.1517L18.5743 46.6976L18.5743 46.6975L17.2011 48.1517ZM18.1221 49.4627L20.0915 49.8114L20.1967 49.2173L19.9558 48.6642L18.1221 49.4627ZM15.2896 65.4614L17.259 65.8101L15.2896 65.4614ZM15.5586 67.7704L17.5279 68.119L17.6343 67.5185L17.3874 66.9608L15.5586 67.7704ZM15.2896 69.2894L13.3202 68.9407L15.2896 69.2894ZM21.0437 73.5511L20.136 71.7689L21.0437 73.5511ZM37.6251 65.1062L36.7174 63.324L36.7174 63.324L37.6251 65.1062ZM41.2557 65.1062L40.348 66.8884H40.348L41.2557 65.1062ZM57.8371 73.5511L56.9294 75.3333L57.8371 73.5511ZM63.5911 69.2894L65.5605 68.9407L63.5911 69.2894ZM63.3222 67.7704L61.4934 66.9608L61.2465 67.5185L61.3528 68.119L63.3222 67.7704ZM63.5911 65.4614L61.6218 65.8101L63.5911 65.4614ZM60.7586 49.4627L58.9249 48.6642L58.6841 49.2173L58.7892 49.8114L60.7586 49.4627ZM61.6796 48.1517L60.3065 46.6976H60.3065L61.6796 48.1517ZM74.7349 35.8236L76.108 37.2778V37.2778L74.7349 35.8236ZM75.5061 31.007L73.7561 30.0387L73.2284 30.9924L73.7439 31.9528L75.5061 31.007ZM72.5462 25.1264L72.2674 27.1069L72.5462 25.1264ZM54.2771 22.5548L53.9983 24.5352L54.2771 22.5548ZM51.2705 20.4096L53.0526 19.5017L53.0526 19.5017L51.2705 20.4096ZM37.6583 5.09212C38.4002 3.63596 40.4806 3.63596 41.2224 5.09213L44.7866 3.27638C42.5611 -1.09211 36.3197 -1.09213 34.0942 3.27637L37.6583 5.09212ZM29.3923 21.3174L37.6583 5.09212L34.0942 3.27637L25.8282 19.5017L29.3923 21.3174ZM24.8825 24.5352C26.8206 24.2624 28.5039 23.0614 29.3923 21.3174L25.8282 19.5017C25.532 20.083 24.971 20.4833 24.3249 20.5743L24.8825 24.5352ZM6.61334 27.1069L24.8825 24.5352L24.3249 20.5743L6.05576 23.146L6.61334 27.1069ZM5.1246 30.0387C4.47839 28.8708 5.19217 27.307 6.61334 27.1069L6.05576 23.146C1.70929 23.7578 -0.305959 28.4862 1.62469 31.9753L5.1246 30.0387ZM5.51899 34.3695C4.80936 33.6994 4.71915 32.7311 5.13687 31.9528L1.61242 30.0612C0.428361 32.2673 0.618563 35.2436 2.77272 37.2778L5.51899 34.3695ZM18.5743 46.6975L5.51899 34.3695L2.77272 37.2778L15.828 49.6058L18.5743 46.6975ZM19.9558 48.6642C19.6373 47.9327 19.1715 47.2615 18.5743 46.6976L15.828 49.6058C16.0273 49.794 16.1823 50.0174 16.2885 50.2612L19.9558 48.6642ZM17.259 65.8101L20.0915 49.8114L16.1528 49.114L13.3202 65.1128L17.259 65.8101ZM17.3874 66.9608C17.243 66.6347 17.1812 66.2493 17.259 65.8101L13.3202 65.1128C13.1015 66.3486 13.2692 67.5396 13.7297 68.5799L17.3874 66.9608ZM17.259 69.6381L17.5279 68.119L13.5892 67.4217L13.3202 68.9407L17.259 69.6381ZM20.136 71.7689C18.6651 72.518 16.9712 71.2635 17.259 69.6381L13.3202 68.9407C12.4569 73.8169 17.5387 77.5807 21.9513 75.3333L20.136 71.7689ZM36.7174 63.324L20.136 71.7689L21.9513 75.3333L38.5327 66.8884L36.7174 63.324ZM42.1634 63.324C40.4526 62.4527 38.4282 62.4527 36.7174 63.324L38.5327 66.8884C39.103 66.5979 39.7778 66.5979 40.348 66.8884L42.1634 63.324ZM58.7447 71.7689L42.1634 63.324L40.348 66.8884L56.9294 75.3333L58.7447 71.7689ZM61.6218 69.6381C61.9095 71.2635 60.2156 72.5181 58.7447 71.7689L56.9294 75.3333C61.3421 77.5806 66.4238 73.8169 65.5605 68.9407L61.6218 69.6381ZM61.3528 68.119L61.6218 69.6381L65.5605 68.9407L65.2916 67.4217L61.3528 68.119ZM61.6218 65.8101C61.6995 66.2493 61.6377 66.6347 61.4934 66.9608L65.151 68.5799C65.6115 67.5396 65.7793 66.3486 65.5605 65.1128L61.6218 65.8101ZM58.7892 49.8114L61.6218 65.8101L65.5605 65.1128L62.728 49.114L58.7892 49.8114ZM60.3065 46.6976C59.7093 47.2615 59.2435 47.9327 58.9249 48.6642L62.5923 50.2612C62.6985 50.0174 62.8535 49.794 63.0528 49.6058L60.3065 46.6976ZM73.3618 34.3695L60.3065 46.6976L63.0528 49.6058L76.108 37.2778L73.3618 34.3695ZM73.7439 31.9528C74.1616 32.7311 74.0714 33.6994 73.3618 34.3695L76.108 37.2778C78.2622 35.2436 78.4524 32.2673 77.2683 30.0612L73.7439 31.9528ZM72.2674 27.1069C73.6886 27.307 74.4024 28.8708 73.7561 30.0387L77.2561 31.9753C79.1867 28.4862 77.1715 23.7578 72.825 23.146L72.2674 27.1069ZM53.9983 24.5352L72.2674 27.1069L72.825 23.146L54.5559 20.5743L53.9983 24.5352ZM49.4884 21.3174C50.3769 23.0614 52.0602 24.2624 53.9983 24.5352L54.5559 20.5743C53.9098 20.4833 53.3487 20.083 53.0526 19.5017L49.4884 21.3174ZM41.2224 5.09213L49.4884 21.3174L53.0526 19.5017L44.7866 3.27638L41.2224 5.09213Z" fill="white" mask="url(#path-1-outside-1_466_6374)"/>
</svg>
